<svg xmlns="http://www.w3.org/2000/svg" xmlns:xlink="http://www.w3.org/1999/xlink" width="500" zoomAndPan="magnify" viewBox="0 0 375 374.999991" height="500" preserveAspectRatio="xMidYMid meet" version="1.0"><defs><g/><clipPath id="a4608cc6b0"><path d="M 36 38 L 338.828125 38 L 338.828125 334 L 36 334 Z M 36 38 " clip-rule="nonzero"/></clipPath><clipPath id="4c6accddce"><path d="M 178.019531 146.933594 L 291.84375 146.933594 L 291.84375 210.417969 L 178.019531 210.417969 Z M 178.019531 146.933594 " clip-rule="nonzero"/></clipPath><clipPath id="d8f5322bde"><path d="M 234.882812 146.933594 C 203.476562 146.933594 178.019531 161.144531 178.019531 178.675781 C 178.019531 196.207031 203.476562 210.417969 234.882812 210.417969 C 266.285156 210.417969 291.746094 196.207031 291.746094 178.675781 C 291.746094 161.144531 266.285156 146.933594 234.882812 146.933594 Z M 234.882812 146.933594 " clip-rule="nonzero"/></clipPath><clipPath id="1bf16114be"><path d="M 89.582031 213.285156 L 99.972656 213.285156 L 99.972656 223.675781 L 89.582031 223.675781 Z M 89.582031 213.285156 " clip-rule="nonzero"/></clipPath><clipPath id="fef8e3f9ea"><path d="M 94.777344 213.285156 C 91.90625 213.285156 89.582031 215.609375 89.582031 218.480469 C 89.582031 221.351562 91.90625 223.675781 94.777344 223.675781 C 97.644531 223.675781 99.972656 221.351562 99.972656 218.480469 C 99.972656 215.609375 97.644531 213.285156 94.777344 213.285156 Z M 94.777344 213.285156 " clip-rule="nonzero"/></clipPath><clipPath id="7070ea4b08"><path d="M 271.6875 213.285156 L 282.078125 213.285156 L 282.078125 223.675781 L 271.6875 223.675781 Z M 271.6875 213.285156 " clip-rule="nonzero"/></clipPath><clipPath id="68d6a1b439"><path d="M 276.882812 213.285156 C 274.011719 213.285156 271.6875 215.609375 271.6875 218.480469 C 271.6875 221.351562 274.011719 223.675781 276.882812 223.675781 C 279.753906 223.675781 282.078125 221.351562 282.078125 218.480469 C 282.078125 215.609375 279.753906 213.285156 276.882812 213.285156 Z M 276.882812 213.285156 " clip-rule="nonzero"/></clipPath></defs><g clip-path="url(#a4608cc6b0)"><path fill="#ffffff" d="M 333.53125 189.988281 C 332.949219 206.4375 329.617188 222.785156 323.683594 238.109375 C 316.71875 256.167969 306.199219 272.808594 292.945312 286.855469 C 279.707031 300.914062 263.726562 312.367188 246.148438 320.332031 C 228.585938 328.320312 209.457031 332.765625 190.214844 333.449219 C 170.96875 334.160156 151.601562 331.101562 133.5625 324.433594 C 115.511719 317.792969 98.8125 307.582031 84.660156 294.609375 C 70.492188 281.652344 58.878906 265.933594 50.722656 248.578125 C 42.535156 231.238281 37.855469 212.277344 36.898438 193.175781 C 35.898438 174.058594 38.648438 154.761719 45.015625 136.738281 C 51.355469 118.710938 61.261719 101.964844 73.953125 87.714844 C 86.632812 73.453125 102.09375 61.6875 119.21875 53.320312 C 136.332031 44.941406 155.089844 40.011719 174.070312 38.765625 C 193.050781 37.476562 212.277344 39.933594 230.285156 45.996094 C 248.300781 52.039062 265.085938 61.652344 279.433594 74.066406 C 293.789062 86.460938 305.703125 101.664062 314.265625 118.558594 C 322.847656 135.445312 328.027344 154.023438 329.554688 172.871094 C 327.878906 154.027344 322.554688 135.53125 313.867188 118.757812 C 305.199219 101.980469 293.21875 86.949219 278.851562 74.742188 C 264.496094 62.515625 247.761719 53.113281 229.867188 47.261719 C 211.972656 41.390625 192.945312 39.125 174.199219 40.542969 C 155.449219 41.917969 136.988281 46.933594 120.203125 55.320312 C 103.402344 63.691406 88.292969 75.382812 75.960938 89.484375 C 63.609375 103.570312 54.023438 120.070312 47.957031 137.761719 C 41.863281 155.453125 39.332031 174.324219 40.453125 192.976562 C 41.539062 211.625 46.246094 230.050781 54.339844 246.859375 C 62.414062 263.671875 73.816406 278.855469 87.660156 291.316406 C 101.488281 303.792969 117.742188 313.546875 135.242188 319.828125 C 152.730469 326.140625 171.445312 328.9375 189.992188 328.101562 C 208.550781 327.304688 226.925781 322.871094 243.738281 315.066406 C 260.5625 307.28125 275.808594 296.164062 288.390625 282.59375 C 300.988281 269.03125 310.917969 253.023438 317.4375 235.734375 C 322.96875 221.113281 326.015625 205.585938 326.46875 189.988281 C 323.445312 188.679688 321.265625 185.746094 321.085938 182.242188 C 320.839844 177.3125 324.625 173.117188 329.554688 172.871094 C 334.476562 172.621094 338.667969 176.414062 338.914062 181.332031 C 339.109375 185.167969 336.855469 188.558594 333.53125 189.988281 Z M 333.53125 189.988281 " fill-opacity="1" fill-rule="nonzero"/></g><path fill="#46c5fb" d="M 300.542969 183.929688 C 300.636719 198.976562 297.78125 214.027344 292.148438 227.949219 C 286.535156 241.886719 278.175781 254.679688 267.726562 265.429688 C 257.289062 276.183594 244.753906 284.890625 231.039062 290.871094 C 217.328125 296.871094 202.449219 300.109375 187.527344 300.460938 C 172.605469 300.839844 157.609375 298.292969 143.6875 292.964844 C 129.757812 287.644531 116.90625 279.582031 106.058594 269.40625 C 95.191406 259.242188 86.328125 246.964844 80.140625 233.46875 C 73.933594 219.976562 70.4375 205.277344 69.800781 190.472656 C 70.585938 205.269531 74.226562 219.90625 80.542969 233.28125 C 86.847656 246.664062 95.785156 258.78125 106.660156 268.757812 C 117.535156 278.746094 130.339844 286.601562 144.15625 291.710938 C 157.96875 296.847656 172.785156 299.199219 187.476562 298.683594 C 202.175781 298.195312 216.757812 294.855469 230.140625 288.839844 C 243.53125 282.839844 255.710938 274.191406 265.804688 263.578125 C 275.910156 252.972656 283.929688 240.410156 289.261719 226.796875 C 294.609375 213.191406 297.21875 198.558594 296.988281 183.96875 C 296.78125 169.375 293.75 154.84375 288.03125 141.445312 C 282.320312 128.046875 273.964844 115.808594 263.613281 105.601562 C 253.273438 95.382812 240.957031 87.195312 227.550781 81.664062 C 214.148438 76.113281 199.679688 73.207031 185.195312 73.207031 C 170.710938 73.179688 156.25 75.921875 142.851562 81.339844 C 129.457031 86.742188 117.179688 94.835938 106.863281 104.910156 C 96.546875 114.976562 88.199219 127.039062 82.449219 140.234375 C 77.832031 150.804688 74.894531 162.101562 73.765625 173.570312 C 76.671875 175.03125 78.671875 178.03125 78.6875 181.507812 C 78.710938 186.433594 74.730469 190.449219 69.800781 190.472656 C 64.875 190.492188 60.859375 186.515625 60.835938 181.585938 C 60.824219 177.699219 63.292969 174.375 66.757812 173.144531 C 68.054688 160.863281 71.300781 148.792969 76.351562 137.539062 C 82.585938 123.617188 91.546875 110.953125 102.539062 100.433594 C 113.53125 89.914062 126.554688 81.511719 140.714844 75.976562 C 154.859375 70.410156 170.085938 67.691406 185.238281 67.878906 C 200.40625 68.027344 215.515625 71.222656 229.445312 77.152344 C 243.378906 83.074219 256.113281 91.726562 266.757812 102.457031 C 277.40625 113.167969 285.945312 125.960938 291.714844 139.898438 C 297.507812 153.828125 300.480469 168.886719 300.542969 183.929688 Z M 300.542969 183.929688 " fill-opacity="1" fill-rule="nonzero"/><g fill="#051d40" fill-opacity="1"><g transform="translate(112.192559, 185.330144)"><g><path d="M 8.375 13.640625 C 6.539062 13.640625 5.203125 13.21875 4.359375 12.375 C 3.515625 11.539062 3.09375 10.207031 3.09375 8.375 L 3.09375 -5.046875 C 3.09375 -6.035156 3.226562 -6.875 3.5 -7.5625 C 3.769531 -8.25 4.171875 -8.828125 4.703125 -9.296875 L 16.171875 -18.921875 C 12.117188 -20.148438 8.925781 -22.234375 6.59375 -25.171875 C 4.257812 -28.117188 3.09375 -32.34375 3.09375 -37.84375 L 3.09375 -49.890625 C 3.09375 -53.328125 3.664062 -56.382812 4.8125 -59.0625 C 5.957031 -61.738281 7.601562 -63.992188 9.75 -65.828125 L 24.65625 -78.328125 C 26.71875 -80.015625 29.273438 -81.332031 32.328125 -82.28125 C 35.390625 -83.238281 38.875 -83.71875 42.78125 -83.71875 L 74.890625 -83.71875 C 76.722656 -83.71875 78.0625 -83.296875 78.90625 -82.453125 C 79.75 -81.617188 80.171875 -80.285156 80.171875 -78.453125 L 80.171875 -64.796875 C 80.171875 -63.804688 80.035156 -62.96875 79.765625 -62.28125 C 79.492188 -61.59375 79.09375 -61.019531 78.5625 -60.5625 L 68.234375 -51.953125 C 73.054688 -50.878906 76.9375 -48.867188 79.875 -45.921875 C 82.820312 -42.984375 84.296875 -38.421875 84.296875 -32.234375 L 84.296875 -20.1875 C 84.296875 -16.75 83.722656 -13.691406 82.578125 -11.015625 C 81.429688 -8.335938 79.75 -6.082031 77.53125 -4.25 L 62.734375 8.140625 C 60.585938 9.898438 57.984375 11.253906 54.921875 12.203125 C 51.867188 13.160156 48.429688 13.640625 44.609375 13.640625 Z M 59.40625 0 C 66.75 0 72.539062 -1.738281 76.78125 -5.21875 C 81.019531 -8.695312 83.140625 -13.6875 83.140625 -20.1875 L 83.140625 -32.234375 C 83.140625 -38.648438 81.492188 -43.234375 78.203125 -45.984375 C 74.921875 -48.742188 70.601562 -50.503906 65.25 -51.265625 L 48.171875 -53.5625 C 47.171875 -53.632812 46.40625 -54.015625 45.875 -54.703125 C 45.34375 -55.390625 45.078125 -56.234375 45.078125 -57.234375 C 45.078125 -58.222656 45.34375 -59.039062 45.875 -59.6875 C 46.40625 -60.34375 47.171875 -60.671875 48.171875 -60.671875 L 74.890625 -60.671875 C 76.335938 -60.671875 77.382812 -60.992188 78.03125 -61.640625 C 78.6875 -62.296875 79.015625 -63.347656 79.015625 -64.796875 L 79.015625 -78.453125 C 79.015625 -79.898438 78.6875 -80.945312 78.03125 -81.59375 C 77.382812 -82.25 76.335938 -82.578125 74.890625 -82.578125 L 42.78125 -82.578125 C 35.363281 -82.578125 29.550781 -80.835938 25.34375 -77.359375 C 21.132812 -73.878906 19.03125 -68.890625 19.03125 -62.390625 L 19.03125 -50.34375 C 19.03125 -43.925781 20.65625 -39.335938 23.90625 -36.578125 C 27.15625 -33.828125 31.457031 -32.070312 36.8125 -31.3125 L 54.015625 -28.90625 C 55.015625 -28.820312 55.757812 -28.472656 56.25 -27.859375 C 56.75 -27.253906 57 -26.300781 57 -25 C 57 -24.082031 56.75 -23.296875 56.25 -22.640625 C 55.757812 -21.992188 55.015625 -21.671875 54.015625 -21.671875 L 23.171875 -21.671875 C 21.710938 -21.671875 20.65625 -21.34375 20 -20.6875 C 19.351562 -20.039062 19.03125 -18.992188 19.03125 -17.546875 L 19.03125 -4.125 C 19.03125 -2.675781 19.351562 -1.625 20 -0.96875 C 20.65625 -0.320312 21.710938 0 23.171875 0 Z M 68.703125 -72.25 L 68.703125 -71.109375 L 43.234375 -71.109375 C 40.023438 -71.109375 37.460938 -70.226562 35.546875 -68.46875 C 33.640625 -66.707031 32.6875 -64.488281 32.6875 -61.8125 L 32.6875 -52.40625 C 32.6875 -49.726562 33.21875 -47.851562 34.28125 -46.78125 C 35.351562 -45.71875 36.769531 -45.035156 38.53125 -44.734375 L 62.734375 -39.796875 C 65.023438 -39.335938 66.914062 -38.34375 68.40625 -36.8125 C 69.894531 -35.28125 70.640625 -32.53125 70.640625 -28.5625 L 70.640625 -21.90625 C 70.640625 -18.539062 69.492188 -15.769531 67.203125 -13.59375 C 64.910156 -11.414062 61.816406 -10.328125 57.921875 -10.328125 L 29.359375 -10.328125 L 29.359375 -11.46875 L 57.921875 -11.46875 C 61.429688 -11.46875 64.238281 -12.441406 66.34375 -14.390625 C 68.445312 -16.335938 69.5 -18.84375 69.5 -21.90625 L 69.5 -28.5625 C 69.5 -32.15625 68.867188 -34.617188 67.609375 -35.953125 C 66.347656 -37.296875 64.644531 -38.195312 62.5 -38.65625 L 38.3125 -43.578125 C 36.320312 -43.960938 34.691406 -44.742188 33.421875 -45.921875 C 32.160156 -47.109375 31.53125 -49.269531 31.53125 -52.40625 L 31.53125 -61.8125 C 31.53125 -64.875 32.601562 -67.378906 34.75 -69.328125 C 36.894531 -71.273438 39.722656 -72.25 43.234375 -72.25 Z M 68.703125 -72.25 "/></g></g></g><g clip-path="url(#4c6accddce)"><g clip-path="url(#d8f5322bde)"><path fill="#ffffff" d="M 178.019531 146.933594 L 291.84375 146.933594 L 291.84375 210.417969 L 178.019531 210.417969 Z M 178.019531 146.933594 " fill-opacity="1" fill-rule="nonzero"/></g></g><g fill="#145da0" fill-opacity="1"><g transform="translate(166.605579, 233.794929)"><g><path d="M 8.375 13.640625 C 6.539062 13.640625 5.203125 13.21875 4.359375 12.375 C 3.515625 11.539062 3.09375 10.207031 3.09375 8.375 L 3.09375 -5.046875 C 3.09375 -6.035156 3.226562 -6.875 3.5 -7.5625 C 3.769531 -8.25 4.171875 -8.828125 4.703125 -9.296875 L 16.171875 -18.921875 C 12.117188 -20.148438 8.925781 -22.234375 6.59375 -25.171875 C 4.257812 -28.117188 3.09375 -32.34375 3.09375 -37.84375 L 3.09375 -49.890625 C 3.09375 -53.328125 3.664062 -56.382812 4.8125 -59.0625 C 5.957031 -61.738281 7.601562 -63.992188 9.75 -65.828125 L 24.65625 -78.328125 C 26.71875 -80.015625 29.273438 -81.332031 32.328125 -82.28125 C 35.390625 -83.238281 38.875 -83.71875 42.78125 -83.71875 L 74.890625 -83.71875 C 76.722656 -83.71875 78.0625 -83.296875 78.90625 -82.453125 C 79.75 -81.617188 80.171875 -80.285156 80.171875 -78.453125 L 80.171875 -64.796875 C 80.171875 -63.804688 80.035156 -62.96875 79.765625 -62.28125 C 79.492188 -61.59375 79.09375 -61.019531 78.5625 -60.5625 L 68.234375 -51.953125 C 73.054688 -50.878906 76.9375 -48.867188 79.875 -45.921875 C 82.820312 -42.984375 84.296875 -38.421875 84.296875 -32.234375 L 84.296875 -20.1875 C 84.296875 -16.75 83.722656 -13.691406 82.578125 -11.015625 C 81.429688 -8.335938 79.75 -6.082031 77.53125 -4.25 L 62.734375 8.140625 C 60.585938 9.898438 57.984375 11.253906 54.921875 12.203125 C 51.867188 13.160156 48.429688 13.640625 44.609375 13.640625 Z M 59.40625 0 C 66.75 0 72.539062 -1.738281 76.78125 -5.21875 C 81.019531 -8.695312 83.140625 -13.6875 83.140625 -20.1875 L 83.140625 -32.234375 C 83.140625 -38.648438 81.492188 -43.234375 78.203125 -45.984375 C 74.921875 -48.742188 70.601562 -50.503906 65.25 -51.265625 L 48.171875 -53.5625 C 47.171875 -53.632812 46.40625 -54.015625 45.875 -54.703125 C 45.34375 -55.390625 45.078125 -56.234375 45.078125 -57.234375 C 45.078125 -58.222656 45.34375 -59.039062 45.875 -59.6875 C 46.40625 -60.34375 47.171875 -60.671875 48.171875 -60.671875 L 74.890625 -60.671875 C 76.335938 -60.671875 77.382812 -60.992188 78.03125 -61.640625 C 78.6875 -62.296875 79.015625 -63.347656 79.015625 -64.796875 L 79.015625 -78.453125 C 79.015625 -79.898438 78.6875 -80.945312 78.03125 -81.59375 C 77.382812 -82.25 76.335938 -82.578125 74.890625 -82.578125 L 42.78125 -82.578125 C 35.363281 -82.578125 29.550781 -80.835938 25.34375 -77.359375 C 21.132812 -73.878906 19.03125 -68.890625 19.03125 -62.390625 L 19.03125 -50.34375 C 19.03125 -43.925781 20.65625 -39.335938 23.90625 -36.578125 C 27.15625 -33.828125 31.457031 -32.070312 36.8125 -31.3125 L 54.015625 -28.90625 C 55.015625 -28.820312 55.757812 -28.472656 56.25 -27.859375 C 56.75 -27.253906 57 -26.300781 57 -25 C 57 -24.082031 56.75 -23.296875 56.25 -22.640625 C 55.757812 -21.992188 55.015625 -21.671875 54.015625 -21.671875 L 23.171875 -21.671875 C 21.710938 -21.671875 20.65625 -21.34375 20 -20.6875 C 19.351562 -20.039062 19.03125 -18.992188 19.03125 -17.546875 L 19.03125 -4.125 C 19.03125 -2.675781 19.351562 -1.625 20 -0.96875 C 20.65625 -0.320312 21.710938 0 23.171875 0 Z M 68.703125 -72.25 L 68.703125 -71.109375 L 43.234375 -71.109375 C 40.023438 -71.109375 37.460938 -70.226562 35.546875 -68.46875 C 33.640625 -66.707031 32.6875 -64.488281 32.6875 -61.8125 L 32.6875 -52.40625 C 32.6875 -49.726562 33.21875 -47.851562 34.28125 -46.78125 C 35.351562 -45.71875 36.769531 -45.035156 38.53125 -44.734375 L 62.734375 -39.796875 C 65.023438 -39.335938 66.914062 -38.34375 68.40625 -36.8125 C 69.894531 -35.28125 70.640625 -32.53125 70.640625 -28.5625 L 70.640625 -21.90625 C 70.640625 -18.539062 69.492188 -15.769531 67.203125 -13.59375 C 64.910156 -11.414062 61.816406 -10.328125 57.921875 -10.328125 L 29.359375 -10.328125 L 29.359375 -11.46875 L 57.921875 -11.46875 C 61.429688 -11.46875 64.238281 -12.441406 66.34375 -14.390625 C 68.445312 -16.335938 69.5 -18.84375 69.5 -21.90625 L 69.5 -28.5625 C 69.5 -32.15625 68.867188 -34.617188 67.609375 -35.953125 C 66.347656 -37.296875 64.644531 -38.195312 62.5 -38.65625 L 38.3125 -43.578125 C 36.320312 -43.960938 34.691406 -44.742188 33.421875 -45.921875 C 32.160156 -47.109375 31.53125 -49.269531 31.53125 -52.40625 L 31.53125 -61.8125 C 31.53125 -64.875 32.601562 -67.378906 34.75 -69.328125 C 36.894531 -71.273438 39.722656 -72.25 43.234375 -72.25 Z M 68.703125 -72.25 "/></g></g></g><g clip-path="url(#1bf16114be)"><g clip-path="url(#fef8e3f9ea)"><path fill="#145da0" d="M 89.582031 213.285156 L 99.972656 213.285156 L 99.972656 223.675781 L 89.582031 223.675781 Z M 89.582031 213.285156 " fill-opacity="1" fill-rule="nonzero"/></g></g><g fill="#ffffff" fill-opacity="1"><g transform="translate(113.925415, 253.584963)"><g><path d="M 14.078125 -0.984375 C 13.929688 -1.128906 13.796875 -1.351562 13.671875 -1.65625 C 13.546875 -1.96875 13.421875 -2.296875 13.296875 -2.640625 C 13.191406 -2.960938 13.070312 -3.28125 12.9375 -3.59375 C 12.8125 -3.90625 12.671875 -4.132812 12.515625 -4.28125 C 12.378906 -4.40625 12.265625 -4.5 12.171875 -4.5625 C 12.078125 -4.625 11.972656 -4.597656 11.859375 -4.484375 C 11.773438 -4.390625 11.816406 -4.1875 11.984375 -3.875 C 12.117188 -3.5625 12.296875 -3.164062 12.515625 -2.6875 C 12.742188 -2.21875 12.960938 -1.6875 13.171875 -1.09375 C 13.390625 -0.5 13.519531 0.125 13.5625 0.78125 C 13.601562 1.4375 13.53125 2.101562 13.34375 2.78125 C 13.125 3.476562 12.722656 4.132812 12.140625 4.75 C 11.523438 5.40625 10.863281 5.835938 10.15625 6.046875 C 9.445312 6.265625 8.742188 6.332031 8.046875 6.25 C 7.347656 6.15625 6.679688 5.945312 6.046875 5.625 C 5.421875 5.3125 4.878906 4.941406 4.421875 4.515625 C 3.890625 4.015625 3.457031 3.515625 3.125 3.015625 C 2.800781 2.515625 2.554688 2.039062 2.390625 1.59375 C 2.210938 1.125 2.097656 0.675781 2.046875 0.25 C 2.003906 -0.175781 2.015625 -0.578125 2.078125 -0.953125 C 2.117188 -1.296875 2.203125 -1.601562 2.328125 -1.875 C 2.460938 -2.15625 2.601562 -2.375 2.75 -2.53125 C 2.976562 -2.769531 3.226562 -2.960938 3.5 -3.109375 C 3.769531 -3.253906 4.046875 -3.335938 4.328125 -3.359375 C 4.609375 -3.367188 4.894531 -3.328125 5.1875 -3.234375 C 5.476562 -3.140625 5.757812 -2.96875 6.03125 -2.71875 C 6.226562 -2.53125 6.378906 -2.332031 6.484375 -2.125 C 6.585938 -1.925781 6.675781 -1.722656 6.75 -1.515625 C 6.769531 -1.410156 6.796875 -1.300781 6.828125 -1.1875 C 6.859375 -1.082031 6.882812 -0.972656 6.90625 -0.859375 C 6.945312 -0.648438 7.003906 -0.4375 7.078125 -0.21875 C 7.148438 -0.0078125 7.242188 0.195312 7.359375 0.40625 C 7.460938 0.601562 7.617188 0.800781 7.828125 1 C 7.972656 1.132812 8.128906 1.25 8.296875 1.34375 C 8.429688 1.4375 8.539062 1.441406 8.625 1.359375 C 8.707031 1.265625 8.71875 1.117188 8.65625 0.921875 C 8.59375 0.703125 8.5 0.4375 8.375 0.125 C 8.257812 -0.175781 8.125 -0.53125 7.96875 -0.9375 C 7.8125 -1.332031 7.664062 -1.75 7.53125 -2.1875 C 7.394531 -2.625 7.28125 -3.085938 7.1875 -3.578125 C 7.113281 -4.054688 7.097656 -4.546875 7.140625 -5.046875 C 7.191406 -5.546875 7.3125 -6.03125 7.5 -6.5 C 7.695312 -6.976562 8.007812 -7.441406 8.4375 -7.890625 C 9.46875 -8.992188 10.644531 -9.507812 11.96875 -9.4375 C 12.613281 -9.414062 13.285156 -9.238281 13.984375 -8.90625 C 14.679688 -8.570312 15.375 -8.078125 16.0625 -7.421875 C 16.5625 -6.960938 17.003906 -6.332031 17.390625 -5.53125 C 17.566406 -5.164062 17.71875 -4.773438 17.84375 -4.359375 C 17.96875 -3.941406 18.03125 -3.523438 18.03125 -3.109375 C 18.0625 -2.710938 18.015625 -2.328125 17.890625 -1.953125 C 17.773438 -1.585938 17.578125 -1.253906 17.296875 -0.953125 C 16.796875 -0.421875 16.265625 -0.171875 15.703125 -0.203125 C 15.148438 -0.234375 14.609375 -0.492188 14.078125 -0.984375 Z M 15.453125 -2.5 L 15.5625 -2.4375 C 15.625 -2.394531 15.691406 -2.378906 15.765625 -2.390625 C 15.847656 -2.410156 15.910156 -2.441406 15.953125 -2.484375 C 16.046875 -2.585938 16.082031 -2.707031 16.0625 -2.84375 C 16.007812 -3.125 15.957031 -3.394531 15.90625 -3.65625 C 15.851562 -3.925781 15.773438 -4.1875 15.671875 -4.4375 C 15.554688 -4.695312 15.40625 -4.960938 15.21875 -5.234375 C 15.039062 -5.515625 14.796875 -5.800781 14.484375 -6.09375 C 14.171875 -6.382812 13.816406 -6.628906 13.421875 -6.828125 C 13.035156 -7.035156 12.644531 -7.179688 12.25 -7.265625 C 11.863281 -7.328125 11.476562 -7.3125 11.09375 -7.21875 C 10.707031 -7.125 10.367188 -6.921875 10.078125 -6.609375 C 9.742188 -6.242188 9.515625 -5.863281 9.390625 -5.46875 C 9.265625 -5.082031 9.21875 -4.675781 9.25 -4.25 C 9.257812 -3.84375 9.332031 -3.421875 9.46875 -2.984375 C 9.601562 -2.546875 9.738281 -2.117188 9.875 -1.703125 C 10.03125 -1.273438 10.175781 -0.851562 10.3125 -0.4375 C 10.457031 -0.0195312 10.554688 0.378906 10.609375 0.765625 C 10.660156 1.140625 10.648438 1.503906 10.578125 1.859375 C 10.515625 2.210938 10.34375 2.539062 10.0625 2.84375 C 9.800781 3.125 9.507812 3.3125 9.1875 3.40625 C 8.863281 3.5 8.539062 3.515625 8.21875 3.453125 C 7.894531 3.410156 7.566406 3.300781 7.234375 3.125 C 6.910156 2.945312 6.609375 2.722656 6.328125 2.453125 C 6.035156 2.191406 5.796875 1.910156 5.609375 1.609375 C 5.429688 1.304688 5.289062 1.003906 5.1875 0.703125 C 5.070312 0.410156 4.984375 0.128906 4.921875 -0.140625 C 4.867188 -0.421875 4.835938 -0.679688 4.828125 -0.921875 C 4.804688 -0.992188 4.765625 -1.054688 4.703125 -1.109375 C 4.628906 -1.171875 4.546875 -1.195312 4.453125 -1.1875 C 4.359375 -1.175781 4.28125 -1.140625 4.21875 -1.078125 C 4.125 -0.984375 4.082031 -0.84375 4.09375 -0.65625 C 4.101562 -0.476562 4.148438 -0.253906 4.234375 0.015625 C 4.285156 0.253906 4.367188 0.519531 4.484375 0.8125 C 4.609375 1.101562 4.75 1.382812 4.90625 1.65625 C 5.039062 1.925781 5.1875 2.175781 5.34375 2.40625 C 5.507812 2.632812 5.671875 2.820312 5.828125 2.96875 C 6.242188 3.363281 6.671875 3.664062 7.109375 3.875 C 7.554688 4.082031 7.992188 4.195312 8.421875 4.21875 C 9.285156 4.28125 10.039062 3.960938 10.6875 3.265625 C 11.019531 2.921875 11.238281 2.554688 11.34375 2.171875 C 11.445312 1.796875 11.476562 1.40625 11.4375 1 C 11.414062 0.582031 11.332031 0.164062 11.1875 -0.25 C 11.050781 -0.675781 10.90625 -1.097656 10.75 -1.515625 C 10.582031 -1.921875 10.425781 -2.328125 10.28125 -2.734375 C 10.144531 -3.148438 10.050781 -3.554688 10 -3.953125 C 9.945312 -4.335938 9.960938 -4.707031 10.046875 -5.0625 C 10.128906 -5.425781 10.320312 -5.769531 10.625 -6.09375 C 10.863281 -6.34375 11.125 -6.492188 11.40625 -6.546875 C 11.6875 -6.597656 11.988281 -6.585938 12.3125 -6.515625 C 12.601562 -6.429688 12.890625 -6.296875 13.171875 -6.109375 C 13.460938 -5.929688 13.722656 -5.738281 13.953125 -5.53125 C 14.378906 -5.125 14.679688 -4.710938 14.859375 -4.296875 C 14.953125 -4.085938 15.03125 -3.863281 15.09375 -3.625 C 15.164062 -3.382812 15.242188 -3.113281 15.328125 -2.8125 C 15.335938 -2.800781 15.34375 -2.78125 15.34375 -2.75 C 15.34375 -2.71875 15.347656 -2.679688 15.359375 -2.640625 C 15.367188 -2.597656 15.398438 -2.550781 15.453125 -2.5 Z M 15.453125 -2.5 "/></g></g></g><g fill="#ffffff" fill-opacity="1"><g transform="translate(124.081695, 263.115672)"><g><path d="M 17.296875 -1.4375 L 11.65625 6.71875 C 11.144531 7.457031 10.519531 7.570312 9.78125 7.0625 C 9.457031 6.84375 9.234375 6.5625 9.109375 6.21875 C 8.992188 5.875 8.960938 5.507812 9.015625 5.125 C 8.472656 5.195312 7.925781 5.164062 7.375 5.03125 C 6.820312 4.894531 6.265625 4.632812 5.703125 4.25 C 4.992188 3.757812 4.421875 3.160156 3.984375 2.453125 C 3.546875 1.753906 3.253906 1.003906 3.109375 0.203125 C 2.953125 -0.585938 2.957031 -1.390625 3.125 -2.203125 C 3.289062 -3.023438 3.617188 -3.789062 4.109375 -4.5 C 4.597656 -5.21875 5.195312 -5.796875 5.90625 -6.234375 C 6.613281 -6.671875 7.367188 -6.960938 8.171875 -7.109375 C 8.960938 -7.242188 9.765625 -7.234375 10.578125 -7.078125 C 11.390625 -6.921875 12.148438 -6.597656 12.859375 -6.109375 C 13.421875 -5.722656 13.863281 -5.289062 14.1875 -4.8125 C 14.507812 -4.34375 14.726562 -3.847656 14.84375 -3.328125 C 15.207031 -3.515625 15.5625 -3.613281 15.90625 -3.625 C 16.257812 -3.644531 16.609375 -3.535156 16.953125 -3.296875 C 17.691406 -2.785156 17.804688 -2.164062 17.296875 -1.4375 Z M 10.625 4.578125 L 15.078125 -1.859375 C 15.117188 -1.910156 15.125 -1.957031 15.09375 -2 C 15.070312 -2.050781 15.035156 -2.09375 14.984375 -2.125 C 14.890625 -2.195312 14.765625 -2.207031 14.609375 -2.15625 C 14.429688 -2.113281 14.222656 -1.921875 13.984375 -1.578125 L 13.28125 -0.578125 C 13.382812 -0.941406 13.414062 -1.304688 13.375 -1.671875 C 13.34375 -2.046875 13.25 -2.410156 13.09375 -2.765625 C 12.78125 -3.453125 12.285156 -4.03125 11.609375 -4.5 C 11.128906 -4.820312 10.625 -5.03125 10.09375 -5.125 C 9.5625 -5.226562 9.035156 -5.226562 8.515625 -5.125 C 7.992188 -5.019531 7.503906 -4.816406 7.046875 -4.515625 C 6.585938 -4.222656 6.191406 -3.835938 5.859375 -3.359375 C 5.523438 -2.878906 5.296875 -2.367188 5.171875 -1.828125 C 5.054688 -1.285156 5.039062 -0.753906 5.125 -0.234375 C 5.207031 0.296875 5.390625 0.789062 5.671875 1.25 C 5.953125 1.707031 6.332031 2.097656 6.8125 2.421875 C 7.476562 2.890625 8.207031 3.140625 9 3.171875 C 9.382812 3.179688 9.757812 3.128906 10.125 3.015625 C 10.5 2.910156 10.84375 2.738281 11.15625 2.5 L 10.234375 3.84375 C 10.148438 3.96875 10.097656 4.078125 10.078125 4.171875 C 10.054688 4.273438 10.050781 4.375 10.0625 4.46875 C 10.082031 4.632812 10.148438 4.753906 10.265625 4.828125 C 10.335938 4.878906 10.394531 4.878906 10.4375 4.828125 C 10.488281 4.773438 10.550781 4.691406 10.625 4.578125 Z M 12.0625 0.9375 C 11.78125 1.351562 11.441406 1.679688 11.046875 1.921875 C 10.660156 2.171875 10.253906 2.335938 9.828125 2.421875 C 9.378906 2.503906 8.925781 2.503906 8.46875 2.421875 C 8.019531 2.335938 7.597656 2.15625 7.203125 1.875 C 6.804688 1.601562 6.488281 1.269531 6.25 0.875 C 6.019531 0.488281 5.878906 0.0820312 5.828125 -0.34375 C 5.765625 -0.769531 5.785156 -1.203125 5.890625 -1.640625 C 5.992188 -2.085938 6.1875 -2.519531 6.46875 -2.9375 C 6.75 -3.332031 7.078125 -3.660156 7.453125 -3.921875 C 7.835938 -4.179688 8.242188 -4.359375 8.671875 -4.453125 C 9.097656 -4.554688 9.53125 -4.566406 9.96875 -4.484375 C 10.414062 -4.398438 10.835938 -4.222656 11.234375 -3.953125 C 11.628906 -3.671875 11.945312 -3.332031 12.1875 -2.9375 C 12.4375 -2.550781 12.597656 -2.132812 12.671875 -1.6875 C 12.734375 -1.25 12.71875 -0.800781 12.625 -0.34375 C 12.53125 0.113281 12.34375 0.539062 12.0625 0.9375 Z M 10.4375 -0.125 L 10.46875 -0.1875 C 10.570312 -0.351562 10.644531 -0.523438 10.6875 -0.703125 C 10.726562 -0.878906 10.734375 -1.0625 10.703125 -1.25 C 10.671875 -1.425781 10.609375 -1.59375 10.515625 -1.75 C 10.429688 -1.90625 10.304688 -2.039062 10.140625 -2.15625 C 9.984375 -2.269531 9.804688 -2.34375 9.609375 -2.375 C 9.421875 -2.414062 9.238281 -2.410156 9.0625 -2.359375 C 8.675781 -2.265625 8.367188 -2.050781 8.140625 -1.71875 C 7.898438 -1.375 7.804688 -1.007812 7.859375 -0.625 C 7.878906 -0.445312 7.9375 -0.269531 8.03125 -0.09375 C 8.132812 0.0703125 8.265625 0.210938 8.421875 0.328125 C 8.585938 0.441406 8.765625 0.507812 8.953125 0.53125 C 9.140625 0.550781 9.320312 0.546875 9.5 0.515625 C 9.882812 0.429688 10.195312 0.21875 10.4375 -0.125 Z M 10.4375 -0.125 "/></g></g></g><g fill="#ffffff" fill-opacity="1"><g transform="translate(137.019578, 271.996858)"><g><path d="M 6.3125 4.15625 C 6.457031 4.226562 6.625 4.253906 6.8125 4.234375 C 7 4.222656 7.179688 4.191406 7.359375 4.140625 C 7.523438 4.054688 7.679688 3.953125 7.828125 3.828125 C 7.984375 3.703125 8.097656 3.566406 8.171875 3.421875 L 8.203125 3.34375 C 8.210938 3.332031 8.222656 3.3125 8.234375 3.28125 C 8.128906 3.34375 7.988281 3.390625 7.8125 3.421875 C 7.632812 3.453125 7.441406 3.460938 7.234375 3.453125 C 7.015625 3.429688 6.78125 3.390625 6.53125 3.328125 C 6.289062 3.265625 6.054688 3.179688 5.828125 3.078125 C 5.046875 2.703125 4.40625 2.210938 3.90625 1.609375 C 3.40625 1.015625 3.054688 0.347656 2.859375 -0.390625 C 2.660156 -1.117188 2.597656 -1.890625 2.671875 -2.703125 C 2.753906 -3.515625 2.984375 -4.3125 3.359375 -5.09375 C 3.734375 -5.863281 4.210938 -6.535156 4.796875 -7.109375 C 5.390625 -7.679688 6.03125 -8.113281 6.71875 -8.40625 C 7.414062 -8.695312 8.15625 -8.835938 8.9375 -8.828125 C 9.726562 -8.828125 10.515625 -8.640625 11.296875 -8.265625 C 11.859375 -7.992188 12.382812 -7.628906 12.875 -7.171875 C 13.363281 -6.710938 13.769531 -6.1875 14.09375 -5.59375 C 14.34375 -5.832031 14.660156 -5.976562 15.046875 -6.03125 C 15.234375 -6.070312 15.425781 -6.082031 15.625 -6.0625 C 15.820312 -6.050781 15.992188 -6.007812 16.140625 -5.9375 C 16.367188 -5.820312 16.539062 -5.6875 16.65625 -5.53125 C 16.78125 -5.382812 16.863281 -5.210938 16.90625 -5.015625 C 16.945312 -4.835938 16.945312 -4.644531 16.90625 -4.4375 C 16.875 -4.226562 16.804688 -4.015625 16.703125 -3.796875 L 12.59375 4.75 C 12.082031 5.8125 11.46875 6.664062 10.75 7.3125 C 10.03125 7.957031 9.285156 8.425781 8.515625 8.71875 C 7.742188 9 6.976562 9.125 6.21875 9.09375 C 5.457031 9.0625 4.78125 8.90625 4.1875 8.625 C 3.5625 8.320312 3.054688 7.988281 2.671875 7.625 C 2.296875 7.257812 2.023438 6.882812 1.859375 6.5 C 1.691406 6.113281 1.617188 5.71875 1.640625 5.3125 C 1.660156 4.90625 1.769531 4.5 1.96875 4.09375 C 2.082031 3.851562 2.238281 3.644531 2.4375 3.46875 C 2.632812 3.289062 2.851562 3.148438 3.09375 3.046875 C 3.332031 2.941406 3.582031 2.890625 3.84375 2.890625 C 4.113281 2.890625 4.363281 2.945312 4.59375 3.0625 C 4.726562 3.125 4.847656 3.195312 4.953125 3.28125 C 5.066406 3.363281 5.191406 3.445312 5.328125 3.53125 C 5.441406 3.625 5.570312 3.722656 5.71875 3.828125 C 5.875 3.929688 6.070312 4.039062 6.3125 4.15625 Z M 11.109375 3.078125 L 14.609375 -4.1875 C 14.628906 -4.238281 14.625 -4.285156 14.59375 -4.328125 C 14.5625 -4.378906 14.519531 -4.421875 14.46875 -4.453125 C 14.363281 -4.492188 14.238281 -4.484375 14.09375 -4.421875 C 13.914062 -4.335938 13.738281 -4.109375 13.5625 -3.734375 L 13.03125 -2.640625 C 13.070312 -3.023438 13.046875 -3.394531 12.953125 -3.75 C 12.867188 -4.101562 12.722656 -4.4375 12.515625 -4.75 C 12.085938 -5.394531 11.503906 -5.894531 10.765625 -6.25 C 10.242188 -6.5 9.710938 -6.628906 9.171875 -6.640625 C 8.640625 -6.660156 8.125 -6.578125 7.625 -6.390625 C 7.125 -6.203125 6.664062 -5.925781 6.25 -5.5625 C 5.84375 -5.195312 5.515625 -4.75 5.265625 -4.21875 C 5.015625 -3.695312 4.867188 -3.160156 4.828125 -2.609375 C 4.796875 -2.066406 4.863281 -1.535156 5.03125 -1.015625 C 5.195312 -0.515625 5.453125 -0.0625 5.796875 0.34375 C 6.148438 0.757812 6.585938 1.09375 7.109375 1.34375 C 7.835938 1.695312 8.597656 1.828125 9.390625 1.734375 C 9.773438 1.679688 10.140625 1.570312 10.484375 1.40625 C 10.828125 1.25 11.132812 1.019531 11.40625 0.71875 L 10.65625 2.28125 C 10.300781 3.019531 9.925781 3.671875 9.53125 4.234375 C 9.144531 4.804688 8.734375 5.269531 8.296875 5.625 C 7.867188 5.988281 7.410156 6.210938 6.921875 6.296875 C 6.441406 6.378906 5.9375 6.289062 5.40625 6.03125 C 5.207031 5.9375 5.019531 5.820312 4.84375 5.6875 C 4.675781 5.5625 4.492188 5.421875 4.296875 5.265625 C 4.265625 5.234375 4.238281 5.207031 4.21875 5.1875 C 4.195312 5.175781 4.175781 5.164062 4.15625 5.15625 C 4.050781 5.101562 3.953125 5.085938 3.859375 5.109375 C 3.765625 5.140625 3.6875 5.21875 3.625 5.34375 C 3.570312 5.445312 3.59375 5.566406 3.6875 5.703125 C 3.78125 5.847656 3.910156 5.988281 4.078125 6.125 C 4.242188 6.257812 4.414062 6.378906 4.59375 6.484375 C 4.78125 6.597656 4.941406 6.691406 5.078125 6.765625 C 5.734375 7.078125 6.347656 7.195312 6.921875 7.125 C 7.492188 7.050781 8.03125 6.835938 8.53125 6.484375 C 9.03125 6.128906 9.492188 5.65625 9.921875 5.0625 C 10.347656 4.46875 10.742188 3.804688 11.109375 3.078125 Z M 12.0625 -0.953125 C 11.84375 -0.503906 11.5625 -0.128906 11.21875 0.171875 C 10.875 0.484375 10.492188 0.710938 10.078125 0.859375 C 9.648438 1.015625 9.207031 1.082031 8.75 1.0625 C 8.289062 1.050781 7.84375 0.941406 7.40625 0.734375 C 6.96875 0.523438 6.601562 0.25 6.3125 -0.09375 C 6.019531 -0.4375 5.816406 -0.816406 5.703125 -1.234375 C 5.578125 -1.648438 5.53125 -2.082031 5.5625 -2.53125 C 5.59375 -2.988281 5.71875 -3.441406 5.9375 -3.890625 C 6.15625 -4.335938 6.429688 -4.71875 6.765625 -5.03125 C 7.097656 -5.351562 7.46875 -5.59375 7.875 -5.75 C 8.269531 -5.90625 8.691406 -5.976562 9.140625 -5.96875 C 9.597656 -5.96875 10.046875 -5.863281 10.484375 -5.65625 C 10.921875 -5.445312 11.285156 -5.164062 11.578125 -4.8125 C 11.878906 -4.457031 12.101562 -4.070312 12.25 -3.65625 C 12.382812 -3.226562 12.441406 -2.78125 12.421875 -2.3125 C 12.398438 -1.851562 12.28125 -1.398438 12.0625 -0.953125 Z M 7.78125 -2.96875 C 7.59375 -2.582031 7.546875 -2.207031 7.640625 -1.84375 C 7.703125 -1.675781 7.789062 -1.515625 7.90625 -1.359375 C 8.019531 -1.210938 8.171875 -1.09375 8.359375 -1 C 8.535156 -0.914062 8.71875 -0.875 8.90625 -0.875 C 9.101562 -0.875 9.285156 -0.90625 9.453125 -0.96875 C 9.628906 -1.050781 9.789062 -1.160156 9.9375 -1.296875 C 10.09375 -1.429688 10.210938 -1.585938 10.296875 -1.765625 C 10.378906 -1.941406 10.425781 -2.128906 10.4375 -2.328125 C 10.457031 -2.523438 10.4375 -2.707031 10.375 -2.875 C 10.320312 -3.0625 10.234375 -3.226562 10.109375 -3.375 C 9.992188 -3.519531 9.847656 -3.632812 9.671875 -3.71875 C 9.484375 -3.8125 9.296875 -3.859375 9.109375 -3.859375 C 8.921875 -3.867188 8.738281 -3.832031 8.5625 -3.75 C 8.21875 -3.601562 7.957031 -3.34375 7.78125 -2.96875 Z M 7.78125 -2.96875 "/></g></g></g><g fill="#ffffff" fill-opacity="1"><g transform="translate(151.183352, 278.753448)"><g><path d="M 16.015625 -6.6875 L 13.15625 2.8125 C 12.894531 3.664062 12.332031 3.960938 11.46875 3.703125 C 11.09375 3.585938 10.796875 3.390625 10.578125 3.109375 C 10.367188 2.828125 10.226562 2.488281 10.15625 2.09375 C 9.664062 2.332031 9.132812 2.472656 8.5625 2.515625 C 7.988281 2.554688 7.378906 2.476562 6.734375 2.28125 C 5.898438 2.03125 5.164062 1.640625 4.53125 1.109375 C 3.90625 0.578125 3.398438 -0.046875 3.015625 -0.765625 C 2.628906 -1.472656 2.390625 -2.238281 2.296875 -3.0625 C 2.203125 -3.894531 2.28125 -4.726562 2.53125 -5.5625 C 2.769531 -6.382812 3.160156 -7.113281 3.703125 -7.75 C 4.242188 -8.394531 4.867188 -8.90625 5.578125 -9.28125 C 6.285156 -9.65625 7.050781 -9.890625 7.875 -9.984375 C 8.707031 -10.085938 9.539062 -10.015625 10.375 -9.765625 C 11.019531 -9.566406 11.566406 -9.289062 12.015625 -8.9375 C 12.460938 -8.59375 12.820312 -8.191406 13.09375 -7.734375 C 13.375 -8.023438 13.679688 -8.226562 14.015625 -8.34375 C 14.347656 -8.46875 14.710938 -8.472656 15.109375 -8.359375 C 15.972656 -8.097656 16.273438 -7.539062 16.015625 -6.6875 Z M 11.515625 1.078125 L 13.765625 -6.421875 C 13.785156 -6.472656 13.78125 -6.515625 13.75 -6.546875 C 13.71875 -6.585938 13.671875 -6.617188 13.609375 -6.640625 C 13.492188 -6.671875 13.367188 -6.644531 13.234375 -6.5625 C 13.066406 -6.457031 12.925781 -6.207031 12.8125 -5.8125 L 12.453125 -4.640625 C 12.441406 -5.023438 12.363281 -5.382812 12.21875 -5.71875 C 12.070312 -6.050781 11.867188 -6.363281 11.609375 -6.65625 C 11.097656 -7.207031 10.445312 -7.601562 9.65625 -7.84375 C 9.101562 -8.007812 8.554688 -8.054688 8.015625 -7.984375 C 7.484375 -7.921875 6.988281 -7.757812 6.53125 -7.5 C 6.050781 -7.238281 5.640625 -6.894531 5.296875 -6.46875 C 4.960938 -6.039062 4.707031 -5.546875 4.53125 -4.984375 C 4.363281 -4.429688 4.304688 -3.878906 4.359375 -3.328125 C 4.410156 -2.785156 4.5625 -2.28125 4.8125 -1.8125 C 5.050781 -1.320312 5.375 -0.898438 5.78125 -0.546875 C 6.195312 -0.203125 6.679688 0.0507812 7.234375 0.21875 C 8.015625 0.445312 8.78125 0.457031 9.53125 0.25 C 9.90625 0.144531 10.253906 -0.015625 10.578125 -0.234375 C 10.898438 -0.453125 11.164062 -0.726562 11.375 -1.0625 L 10.90625 0.5 C 10.863281 0.644531 10.847656 0.769531 10.859375 0.875 C 10.878906 0.976562 10.910156 1.070312 10.953125 1.15625 C 11.015625 1.3125 11.113281 1.40625 11.25 1.4375 C 11.332031 1.46875 11.382812 1.445312 11.40625 1.375 C 11.4375 1.3125 11.472656 1.210938 11.515625 1.078125 Z M 11.765625 -2.8125 C 11.628906 -2.332031 11.410156 -1.914062 11.109375 -1.5625 C 10.816406 -1.207031 10.472656 -0.925781 10.078125 -0.71875 C 9.691406 -0.5 9.269531 -0.359375 8.8125 -0.296875 C 8.351562 -0.242188 7.890625 -0.285156 7.421875 -0.421875 C 6.960938 -0.554688 6.5625 -0.773438 6.21875 -1.078125 C 5.875 -1.378906 5.613281 -1.722656 5.4375 -2.109375 C 5.25 -2.492188 5.132812 -2.914062 5.09375 -3.375 C 5.0625 -3.832031 5.113281 -4.300781 5.25 -4.78125 C 5.394531 -5.25 5.609375 -5.660156 5.890625 -6.015625 C 6.179688 -6.378906 6.507812 -6.675781 6.875 -6.90625 C 7.238281 -7.125 7.644531 -7.265625 8.09375 -7.328125 C 8.550781 -7.390625 9.007812 -7.351562 9.46875 -7.21875 C 9.9375 -7.082031 10.34375 -6.859375 10.6875 -6.546875 C 11.039062 -6.242188 11.316406 -5.898438 11.515625 -5.515625 C 11.734375 -5.109375 11.863281 -4.671875 11.90625 -4.203125 C 11.957031 -3.742188 11.910156 -3.28125 11.765625 -2.8125 Z M 9.90625 -3.34375 L 9.921875 -3.390625 C 9.960938 -3.585938 9.972656 -3.773438 9.953125 -3.953125 C 9.941406 -4.140625 9.890625 -4.320312 9.796875 -4.5 C 9.722656 -4.644531 9.613281 -4.78125 9.46875 -4.90625 C 9.332031 -5.03125 9.171875 -5.125 8.984375 -5.1875 C 8.796875 -5.238281 8.609375 -5.25 8.421875 -5.21875 C 8.234375 -5.195312 8.054688 -5.132812 7.890625 -5.03125 C 7.554688 -4.832031 7.332031 -4.539062 7.21875 -4.15625 C 7.09375 -3.75 7.113281 -3.363281 7.28125 -3 C 7.363281 -2.84375 7.476562 -2.695312 7.625 -2.5625 C 7.769531 -2.4375 7.9375 -2.347656 8.125 -2.296875 C 8.3125 -2.234375 8.492188 -2.21875 8.671875 -2.25 C 8.859375 -2.28125 9.035156 -2.335938 9.203125 -2.421875 C 9.546875 -2.628906 9.78125 -2.9375 9.90625 -3.34375 Z M 9.90625 -3.34375 "/></g></g></g><g fill="#ffffff" fill-opacity="1"><g transform="translate(166.166029, 283.094971)"><g><path d="M 1.625 -1.96875 L 2.953125 -10.65625 C 3.097656 -11.550781 3.617188 -11.929688 4.515625 -11.796875 C 4.929688 -11.734375 5.253906 -11.582031 5.484375 -11.34375 C 5.722656 -11.101562 5.910156 -10.773438 6.046875 -10.359375 C 6.554688 -10.648438 7.097656 -10.859375 7.671875 -10.984375 C 8.242188 -11.109375 8.816406 -11.128906 9.390625 -11.046875 C 9.785156 -10.984375 10.179688 -10.875 10.578125 -10.71875 C 10.972656 -10.5625 11.320312 -10.359375 11.625 -10.109375 C 11.925781 -9.847656 12.15625 -9.535156 12.3125 -9.171875 C 12.476562 -8.816406 12.523438 -8.40625 12.453125 -7.9375 C 12.398438 -7.625 12.289062 -7.335938 12.125 -7.078125 C 11.957031 -6.828125 11.753906 -6.609375 11.515625 -6.421875 C 11.273438 -6.242188 11.003906 -6.113281 10.703125 -6.03125 C 10.398438 -5.957031 10.097656 -5.941406 9.796875 -5.984375 C 9.554688 -6.023438 9.316406 -6.09375 9.078125 -6.1875 C 8.835938 -6.269531 8.601562 -6.332031 8.375 -6.375 C 8.125 -6.40625 7.921875 -6.394531 7.765625 -6.34375 C 7.609375 -6.300781 7.484375 -6.222656 7.390625 -6.109375 C 7.296875 -5.992188 7.222656 -5.84375 7.171875 -5.65625 C 7.128906 -5.46875 7.085938 -5.253906 7.046875 -5.015625 L 6.46875 -1.21875 C 6.40625 -0.882812 6.289062 -0.578125 6.125 -0.296875 C 5.957031 -0.015625 5.75 0.207031 5.5 0.375 C 5.238281 0.5625 4.953125 0.695312 4.640625 0.78125 C 4.328125 0.863281 4.003906 0.878906 3.671875 0.828125 C 3.335938 0.773438 3.03125 0.660156 2.75 0.484375 C 2.46875 0.316406 2.238281 0.101562 2.0625 -0.15625 C 1.875 -0.394531 1.738281 -0.671875 1.65625 -0.984375 C 1.570312 -1.304688 1.5625 -1.632812 1.625 -1.96875 Z M 4.875 -9.46875 L 3.671875 -1.671875 C 3.648438 -1.566406 3.664062 -1.472656 3.71875 -1.390625 C 3.78125 -1.316406 3.867188 -1.269531 3.984375 -1.25 C 4.085938 -1.238281 4.179688 -1.257812 4.265625 -1.3125 C 4.347656 -1.375 4.398438 -1.457031 4.421875 -1.5625 L 5.078125 -5.8125 C 5.171875 -6.425781 5.363281 -6.914062 5.65625 -7.28125 C 5.957031 -7.644531 6.304688 -7.910156 6.703125 -8.078125 C 7.078125 -8.242188 7.476562 -8.335938 7.90625 -8.359375 C 8.332031 -8.390625 8.707031 -8.378906 9.03125 -8.328125 C 9.195312 -8.304688 9.328125 -8.28125 9.421875 -8.25 C 9.523438 -8.226562 9.609375 -8.203125 9.671875 -8.171875 C 9.734375 -8.140625 9.785156 -8.109375 9.828125 -8.078125 C 9.878906 -8.054688 9.9375 -8.039062 10 -8.03125 C 10.09375 -8.019531 10.179688 -8.03125 10.265625 -8.0625 C 10.347656 -8.09375 10.398438 -8.171875 10.421875 -8.296875 C 10.429688 -8.398438 10.398438 -8.488281 10.328125 -8.5625 C 10.253906 -8.644531 10.164062 -8.71875 10.0625 -8.78125 C 9.925781 -8.84375 9.78125 -8.890625 9.625 -8.921875 C 9.46875 -8.953125 9.304688 -8.976562 9.140625 -9 C 8.628906 -9.082031 8.148438 -9.085938 7.703125 -9.015625 C 7.265625 -8.953125 6.875 -8.847656 6.53125 -8.703125 C 6.195312 -8.546875 5.925781 -8.367188 5.71875 -8.171875 C 5.519531 -7.984375 5.398438 -7.8125 5.359375 -7.65625 L 5.46875 -8.359375 C 5.539062 -8.816406 5.523438 -9.132812 5.421875 -9.3125 C 5.328125 -9.5 5.21875 -9.601562 5.09375 -9.625 C 4.96875 -9.644531 4.894531 -9.59375 4.875 -9.46875 Z M 4.875 -9.46875 "/></g></g></g><g fill="#ffffff" fill-opacity="1"><g transform="translate(178.132001, 284.814656)"><g/></g></g><g fill="#ffffff" fill-opacity="1"><g transform="translate(186.106028, 285.368172)"><g><path d="M 9.015625 -10.859375 C 8.804688 -10.847656 8.546875 -10.90625 8.234375 -11.03125 C 7.929688 -11.15625 7.613281 -11.289062 7.28125 -11.4375 C 6.96875 -11.582031 6.65625 -11.71875 6.34375 -11.84375 C 6.03125 -11.96875 5.769531 -12.023438 5.5625 -12.015625 C 5.375 -12.003906 5.222656 -11.984375 5.109375 -11.953125 C 4.992188 -11.929688 4.941406 -11.84375 4.953125 -11.6875 C 4.953125 -11.5625 5.125 -11.445312 5.46875 -11.34375 C 5.789062 -11.21875 6.203125 -11.070312 6.703125 -10.90625 C 7.203125 -10.738281 7.734375 -10.523438 8.296875 -10.265625 C 8.890625 -10.015625 9.4375 -9.675781 9.9375 -9.25 C 10.445312 -8.832031 10.878906 -8.320312 11.234375 -7.71875 C 11.578125 -7.082031 11.773438 -6.34375 11.828125 -5.5 C 11.878906 -4.601562 11.734375 -3.820312 11.390625 -3.15625 C 11.054688 -2.5 10.625 -1.945312 10.09375 -1.5 C 9.53125 -1.0625 8.914062 -0.722656 8.25 -0.484375 C 7.582031 -0.242188 6.9375 -0.101562 6.3125 -0.0625 C 5.582031 -0.0195312 4.925781 -0.0507812 4.34375 -0.15625 C 3.769531 -0.269531 3.253906 -0.425781 2.796875 -0.625 C 2.335938 -0.820312 1.9375 -1.050781 1.59375 -1.3125 C 1.257812 -1.582031 0.984375 -1.863281 0.765625 -2.15625 C 0.535156 -2.4375 0.363281 -2.71875 0.25 -3 C 0.144531 -3.28125 0.0859375 -3.53125 0.078125 -3.75 C 0.0546875 -4.070312 0.0859375 -4.378906 0.171875 -4.671875 C 0.253906 -4.972656 0.382812 -5.226562 0.5625 -5.4375 C 0.75 -5.65625 0.976562 -5.832031 1.25 -5.96875 C 1.519531 -6.113281 1.835938 -6.195312 2.203125 -6.21875 C 2.472656 -6.226562 2.71875 -6.203125 2.9375 -6.140625 C 3.15625 -6.085938 3.367188 -6.015625 3.578125 -5.921875 C 3.671875 -5.859375 3.765625 -5.800781 3.859375 -5.75 C 3.960938 -5.707031 4.0625 -5.65625 4.15625 -5.59375 C 4.34375 -5.46875 4.535156 -5.359375 4.734375 -5.265625 C 4.929688 -5.179688 5.144531 -5.109375 5.375 -5.046875 C 5.59375 -4.984375 5.847656 -4.960938 6.140625 -4.984375 C 6.335938 -4.992188 6.519531 -5.023438 6.6875 -5.078125 C 6.851562 -5.109375 6.9375 -5.179688 6.9375 -5.296875 C 6.925781 -5.421875 6.820312 -5.523438 6.625 -5.609375 C 6.4375 -5.710938 6.1875 -5.828125 5.875 -5.953125 C 5.570312 -6.078125 5.21875 -6.222656 4.8125 -6.390625 C 4.425781 -6.546875 4.03125 -6.726562 3.625 -6.9375 C 3.21875 -7.15625 2.804688 -7.398438 2.390625 -7.671875 C 1.992188 -7.953125 1.628906 -8.28125 1.296875 -8.65625 C 0.972656 -9.03125 0.703125 -9.453125 0.484375 -9.921875 C 0.285156 -10.390625 0.164062 -10.929688 0.125 -11.546875 C 0.0390625 -13.054688 0.484375 -14.265625 1.453125 -15.171875 C 1.921875 -15.617188 2.507812 -15.976562 3.21875 -16.25 C 3.9375 -16.519531 4.769531 -16.679688 5.71875 -16.734375 C 6.394531 -16.773438 7.160156 -16.660156 8.015625 -16.390625 C 8.410156 -16.253906 8.800781 -16.085938 9.1875 -15.890625 C 9.570312 -15.703125 9.910156 -15.472656 10.203125 -15.203125 C 10.515625 -14.929688 10.765625 -14.625 10.953125 -14.28125 C 11.140625 -13.945312 11.242188 -13.578125 11.265625 -13.171875 C 11.304688 -12.441406 11.117188 -11.882812 10.703125 -11.5 C 10.296875 -11.113281 9.734375 -10.898438 9.015625 -10.859375 Z M 8.875 -12.90625 L 9 -12.921875 C 9.070312 -12.953125 9.128906 -13 9.171875 -13.0625 C 9.210938 -13.125 9.234375 -13.1875 9.234375 -13.25 C 9.222656 -13.382812 9.160156 -13.5 9.046875 -13.59375 C 8.804688 -13.738281 8.570312 -13.882812 8.34375 -14.03125 C 8.113281 -14.175781 7.875 -14.300781 7.625 -14.40625 C 7.351562 -14.5 7.050781 -14.570312 6.71875 -14.625 C 6.394531 -14.6875 6.019531 -14.707031 5.59375 -14.6875 C 5.164062 -14.65625 4.75 -14.570312 4.34375 -14.4375 C 3.9375 -14.300781 3.566406 -14.113281 3.234375 -13.875 C 2.910156 -13.632812 2.648438 -13.34375 2.453125 -13 C 2.253906 -12.65625 2.171875 -12.269531 2.203125 -11.84375 C 2.222656 -11.351562 2.332031 -10.925781 2.53125 -10.5625 C 2.738281 -10.207031 3.003906 -9.894531 3.328125 -9.625 C 3.628906 -9.34375 3.976562 -9.097656 4.375 -8.890625 C 4.78125 -8.691406 5.1875 -8.5 5.59375 -8.3125 C 6.007812 -8.125 6.414062 -7.9375 6.8125 -7.75 C 7.207031 -7.570312 7.5625 -7.367188 7.875 -7.140625 C 8.195312 -6.910156 8.457031 -6.644531 8.65625 -6.34375 C 8.863281 -6.050781 8.976562 -5.707031 9 -5.3125 C 9.019531 -4.925781 8.953125 -4.582031 8.796875 -4.28125 C 8.648438 -3.988281 8.445312 -3.75 8.1875 -3.5625 C 7.914062 -3.351562 7.601562 -3.191406 7.25 -3.078125 C 6.894531 -2.960938 6.523438 -2.894531 6.140625 -2.875 C 5.742188 -2.851562 5.375 -2.878906 5.03125 -2.953125 C 4.695312 -3.035156 4.382812 -3.140625 4.09375 -3.265625 C 3.8125 -3.390625 3.550781 -3.523438 3.3125 -3.671875 C 3.070312 -3.828125 2.859375 -3.976562 2.671875 -4.125 C 2.609375 -4.164062 2.535156 -4.179688 2.453125 -4.171875 C 2.359375 -4.171875 2.28125 -4.128906 2.21875 -4.046875 C 2.164062 -3.972656 2.140625 -3.890625 2.140625 -3.796875 C 2.148438 -3.671875 2.222656 -3.546875 2.359375 -3.421875 C 2.503906 -3.304688 2.695312 -3.179688 2.9375 -3.046875 C 3.15625 -2.921875 3.410156 -2.800781 3.703125 -2.6875 C 3.992188 -2.570312 4.285156 -2.476562 4.578125 -2.40625 C 4.867188 -2.3125 5.15625 -2.242188 5.4375 -2.203125 C 5.71875 -2.160156 5.96875 -2.144531 6.1875 -2.15625 C 6.757812 -2.1875 7.269531 -2.289062 7.71875 -2.46875 C 8.175781 -2.644531 8.5625 -2.878906 8.875 -3.171875 C 9.507812 -3.753906 9.800781 -4.519531 9.75 -5.46875 C 9.71875 -5.9375 9.597656 -6.335938 9.390625 -6.671875 C 9.191406 -7.015625 8.9375 -7.316406 8.625 -7.578125 C 8.300781 -7.835938 7.9375 -8.0625 7.53125 -8.25 C 7.132812 -8.445312 6.734375 -8.632812 6.328125 -8.8125 C 5.921875 -8.976562 5.519531 -9.148438 5.125 -9.328125 C 4.726562 -9.515625 4.375 -9.722656 4.0625 -9.953125 C 3.738281 -10.191406 3.476562 -10.460938 3.28125 -10.765625 C 3.082031 -11.078125 2.972656 -11.453125 2.953125 -11.890625 C 2.929688 -12.234375 3 -12.523438 3.15625 -12.765625 C 3.3125 -13.003906 3.53125 -13.210938 3.8125 -13.390625 C 4.070312 -13.546875 4.363281 -13.664062 4.6875 -13.75 C 5.007812 -13.84375 5.328125 -13.898438 5.640625 -13.921875 C 6.222656 -13.953125 6.726562 -13.882812 7.15625 -13.71875 C 7.375 -13.632812 7.59375 -13.535156 7.8125 -13.421875 C 8.03125 -13.304688 8.28125 -13.175781 8.5625 -13.03125 C 8.570312 -13.019531 8.585938 -13.003906 8.609375 -12.984375 C 8.640625 -12.972656 8.671875 -12.957031 8.703125 -12.9375 C 8.742188 -12.90625 8.800781 -12.894531 8.875 -12.90625 Z M 8.875 -12.90625 "/></g></g></g><g fill="#ffffff" fill-opacity="1"><g transform="translate(200.020813, 284.621221)"><g><path d="M 11.640625 -12.5 L 13.421875 -3.890625 C 13.597656 -3.003906 13.238281 -2.472656 12.34375 -2.296875 C 11.9375 -2.210938 11.578125 -2.242188 11.265625 -2.390625 C 10.960938 -2.535156 10.671875 -2.785156 10.390625 -3.140625 C 10.035156 -2.753906 9.675781 -2.4375 9.3125 -2.1875 C 8.957031 -1.945312 8.625 -1.757812 8.3125 -1.625 C 7.976562 -1.46875 7.675781 -1.351562 7.40625 -1.28125 C 7.132812 -1.21875 6.90625 -1.164062 6.71875 -1.125 C 5.875 -0.945312 5.082031 -0.953125 4.34375 -1.140625 C 3.601562 -1.335938 2.945312 -1.664062 2.375 -2.125 C 1.789062 -2.59375 1.300781 -3.171875 0.90625 -3.859375 C 0.507812 -4.554688 0.222656 -5.328125 0.046875 -6.171875 L -0.734375 -9.96875 C -0.804688 -10.289062 -0.804688 -10.609375 -0.734375 -10.921875 C -0.660156 -11.234375 -0.546875 -11.523438 -0.390625 -11.796875 C -0.210938 -12.046875 0.00390625 -12.265625 0.265625 -12.453125 C 0.523438 -12.648438 0.816406 -12.78125 1.140625 -12.84375 C 1.460938 -12.914062 1.785156 -12.914062 2.109375 -12.84375 C 2.429688 -12.769531 2.726562 -12.65625 3 -12.5 C 3.257812 -12.3125 3.484375 -12.085938 3.671875 -11.828125 C 3.859375 -11.566406 3.988281 -11.273438 4.0625 -10.953125 L 4.84375 -7.15625 C 4.925781 -6.75 5.117188 -6.429688 5.421875 -6.203125 C 5.578125 -6.109375 5.742188 -6.035156 5.921875 -5.984375 C 6.109375 -5.929688 6.300781 -5.925781 6.5 -5.96875 C 6.695312 -6.007812 6.867188 -6.085938 7.015625 -6.203125 C 7.171875 -6.316406 7.304688 -6.445312 7.421875 -6.59375 C 7.617188 -6.925781 7.691406 -7.285156 7.640625 -7.671875 L 6.84375 -11.515625 C 6.769531 -11.847656 6.765625 -12.171875 6.828125 -12.484375 C 6.898438 -12.804688 7.019531 -13.101562 7.1875 -13.375 C 7.363281 -13.632812 7.582031 -13.851562 7.84375 -14.03125 C 8.101562 -14.21875 8.398438 -14.347656 8.734375 -14.421875 C 9.066406 -14.484375 9.394531 -14.484375 9.71875 -14.421875 C 10.039062 -14.359375 10.328125 -14.242188 10.578125 -14.078125 C 10.847656 -13.898438 11.070312 -13.675781 11.25 -13.40625 C 11.4375 -13.132812 11.566406 -12.832031 11.640625 -12.5 Z M 11.140625 -4.5625 L 9.578125 -12.109375 C 9.554688 -12.210938 9.507812 -12.289062 9.4375 -12.34375 C 9.375 -12.40625 9.28125 -12.425781 9.15625 -12.40625 C 9.0625 -12.382812 8.976562 -12.332031 8.90625 -12.25 C 8.84375 -12.164062 8.820312 -12.070312 8.84375 -11.96875 L 9.515625 -8.78125 C 9.609375 -8.28125 9.601562 -7.765625 9.5 -7.234375 C 9.40625 -6.703125 9.234375 -6.207031 8.984375 -5.75 C 8.703125 -5.289062 8.347656 -4.890625 7.921875 -4.546875 C 7.503906 -4.203125 7.035156 -3.976562 6.515625 -3.875 C 6.015625 -3.769531 5.554688 -3.773438 5.140625 -3.890625 C 4.722656 -4.003906 4.363281 -4.195312 4.0625 -4.46875 C 3.738281 -4.757812 3.472656 -5.113281 3.265625 -5.53125 C 3.066406 -5.957031 2.910156 -6.425781 2.796875 -6.9375 L 2.0625 -10.515625 C 2.039062 -10.597656 1.992188 -10.675781 1.921875 -10.75 C 1.847656 -10.832031 1.742188 -10.863281 1.609375 -10.84375 C 1.472656 -10.8125 1.382812 -10.742188 1.34375 -10.640625 C 1.3125 -10.546875 1.304688 -10.453125 1.328125 -10.359375 L 2.0625 -6.78125 C 2.195312 -6.164062 2.394531 -5.609375 2.65625 -5.109375 C 2.914062 -4.609375 3.234375 -4.195312 3.609375 -3.875 C 3.992188 -3.550781 4.429688 -3.320312 4.921875 -3.1875 C 5.421875 -3.0625 5.972656 -3.0625 6.578125 -3.1875 C 7.117188 -3.289062 7.597656 -3.484375 8.015625 -3.765625 C 8.441406 -4.046875 8.796875 -4.351562 9.078125 -4.6875 C 9.359375 -5.019531 9.570312 -5.363281 9.71875 -5.71875 C 9.875 -6.082031 9.953125 -6.394531 9.953125 -6.65625 L 10.3125 -4.890625 C 10.363281 -4.648438 10.460938 -4.460938 10.609375 -4.328125 C 10.753906 -4.191406 10.890625 -4.140625 11.015625 -4.171875 C 11.117188 -4.191406 11.171875 -4.234375 11.171875 -4.296875 C 11.171875 -4.367188 11.160156 -4.457031 11.140625 -4.5625 Z M 11.140625 -4.5625 "/></g></g></g><g fill="#ffffff" fill-opacity="1"><g transform="translate(215.623885, 281.324883)"><g><path d="M 1.0625 -1.5625 L -3.46875 -13.546875 C -3.582031 -13.859375 -3.632812 -14.179688 -3.625 -14.515625 C -3.625 -14.847656 -3.550781 -15.15625 -3.40625 -15.4375 C -3.28125 -15.71875 -3.097656 -15.96875 -2.859375 -16.1875 C -2.628906 -16.40625 -2.359375 -16.578125 -2.046875 -16.703125 C -1.734375 -16.816406 -1.410156 -16.867188 -1.078125 -16.859375 C -0.742188 -16.847656 -0.441406 -16.785156 -0.171875 -16.671875 C 0.109375 -16.535156 0.363281 -16.347656 0.59375 -16.109375 C 0.820312 -15.867188 0.992188 -15.59375 1.109375 -15.28125 L 1.828125 -13.421875 C 2.304688 -13.910156 2.851562 -14.273438 3.46875 -14.515625 C 4.28125 -14.816406 5.070312 -14.9375 5.84375 -14.875 C 6.625 -14.8125 7.359375 -14.601562 8.046875 -14.25 C 8.722656 -13.90625 9.320312 -13.421875 9.84375 -12.796875 C 10.375 -12.179688 10.789062 -11.46875 11.09375 -10.65625 C 11.394531 -9.84375 11.550781 -9.03125 11.5625 -8.21875 C 11.582031 -7.414062 11.457031 -6.648438 11.1875 -5.921875 C 10.90625 -5.210938 10.492188 -4.578125 9.953125 -4.015625 C 9.410156 -3.460938 8.734375 -3.035156 7.921875 -2.734375 C 7.222656 -2.460938 6.546875 -2.332031 5.890625 -2.34375 C 5.242188 -2.363281 4.617188 -2.492188 4.015625 -2.734375 C 3.992188 -2.296875 3.894531 -1.898438 3.71875 -1.546875 C 3.539062 -1.203125 3.238281 -0.953125 2.8125 -0.796875 C 1.96875 -0.472656 1.382812 -0.726562 1.0625 -1.5625 Z M -1.53125 -14.3125 L 2.578125 -3.421875 C 2.628906 -3.285156 2.671875 -3.1875 2.703125 -3.125 C 2.742188 -3.0625 2.800781 -3.046875 2.875 -3.078125 C 3.007812 -3.128906 3.109375 -3.234375 3.171875 -3.390625 C 3.191406 -3.472656 3.207031 -3.566406 3.21875 -3.671875 C 3.226562 -3.773438 3.207031 -3.894531 3.15625 -4.03125 L 2.640625 -5.375 C 2.910156 -5.09375 3.210938 -4.875 3.546875 -4.71875 C 3.890625 -4.5625 4.238281 -4.445312 4.59375 -4.375 C 4.945312 -4.3125 5.3125 -4.296875 5.6875 -4.328125 C 6.070312 -4.359375 6.445312 -4.441406 6.8125 -4.578125 C 7.34375 -4.773438 7.800781 -5.066406 8.1875 -5.453125 C 8.582031 -5.835938 8.890625 -6.273438 9.109375 -6.765625 C 9.316406 -7.253906 9.425781 -7.769531 9.4375 -8.3125 C 9.445312 -8.863281 9.347656 -9.414062 9.140625 -9.96875 C 8.929688 -10.507812 8.640625 -10.976562 8.265625 -11.375 C 7.898438 -11.78125 7.476562 -12.101562 7 -12.34375 C 6.507812 -12.5625 5.988281 -12.679688 5.4375 -12.703125 C 4.894531 -12.734375 4.359375 -12.648438 3.828125 -12.453125 C 3.085938 -12.171875 2.476562 -11.742188 2 -11.171875 C 1.769531 -10.890625 1.582031 -10.582031 1.4375 -10.25 C 1.289062 -9.914062 1.210938 -9.566406 1.203125 -9.203125 L -0.828125 -14.578125 C -0.867188 -14.691406 -0.9375 -14.765625 -1.03125 -14.796875 C -1.125 -14.835938 -1.222656 -14.84375 -1.328125 -14.8125 C -1.460938 -14.757812 -1.535156 -14.675781 -1.546875 -14.5625 C -1.566406 -14.457031 -1.5625 -14.375 -1.53125 -14.3125 Z M 2.078125 -7.3125 C 1.898438 -7.769531 1.820312 -8.226562 1.84375 -8.6875 C 1.863281 -9.144531 1.957031 -9.578125 2.125 -9.984375 C 2.320312 -10.398438 2.582031 -10.769531 2.90625 -11.09375 C 3.226562 -11.414062 3.613281 -11.664062 4.0625 -11.84375 C 4.519531 -12.007812 4.972656 -12.078125 5.421875 -12.046875 C 5.867188 -12.015625 6.285156 -11.898438 6.671875 -11.703125 C 7.054688 -11.503906 7.398438 -11.234375 7.703125 -10.890625 C 8.015625 -10.554688 8.257812 -10.160156 8.4375 -9.703125 C 8.613281 -9.234375 8.695312 -8.769531 8.6875 -8.3125 C 8.6875 -7.851562 8.609375 -7.425781 8.453125 -7.03125 C 8.285156 -6.625 8.039062 -6.257812 7.71875 -5.9375 C 7.40625 -5.613281 7.019531 -5.367188 6.5625 -5.203125 C 6.113281 -5.023438 5.660156 -4.953125 5.203125 -4.984375 C 4.753906 -5.015625 4.320312 -5.125 3.90625 -5.3125 C 3.507812 -5.5 3.148438 -5.757812 2.828125 -6.09375 C 2.503906 -6.4375 2.253906 -6.84375 2.078125 -7.3125 Z M 3.890625 -7.9375 C 4.035156 -7.550781 4.285156 -7.265625 4.640625 -7.078125 C 4.804688 -6.992188 4.984375 -6.941406 5.171875 -6.921875 C 5.359375 -6.910156 5.546875 -6.941406 5.734375 -7.015625 C 5.921875 -7.085938 6.082031 -7.191406 6.21875 -7.328125 C 6.351562 -7.460938 6.453125 -7.617188 6.515625 -7.796875 C 6.671875 -8.171875 6.675781 -8.550781 6.53125 -8.9375 C 6.382812 -9.3125 6.128906 -9.59375 5.765625 -9.78125 C 5.597656 -9.863281 5.421875 -9.910156 5.234375 -9.921875 C 5.046875 -9.941406 4.859375 -9.914062 4.671875 -9.84375 C 4.484375 -9.769531 4.320312 -9.664062 4.1875 -9.53125 C 4.050781 -9.394531 3.953125 -9.238281 3.890625 -9.0625 C 3.742188 -8.6875 3.742188 -8.3125 3.890625 -7.9375 Z M 3.890625 -7.9375 "/></g></g></g><g fill="#ffffff" fill-opacity="1"><g transform="translate(230.215136, 275.719613)"><g><path d="M 6.296875 -3.265625 C 5.535156 -2.835938 4.738281 -2.578125 3.90625 -2.484375 C 3.082031 -2.398438 2.285156 -2.46875 1.515625 -2.6875 C 0.734375 -2.90625 0.015625 -3.265625 -0.640625 -3.765625 C -1.304688 -4.273438 -1.851562 -4.90625 -2.28125 -5.65625 C -2.707031 -6.40625 -2.960938 -7.191406 -3.046875 -8.015625 C -3.140625 -8.847656 -3.078125 -9.648438 -2.859375 -10.421875 C -2.648438 -11.203125 -2.289062 -11.925781 -1.78125 -12.59375 C -1.28125 -13.257812 -0.648438 -13.804688 0.109375 -14.234375 C 0.859375 -14.648438 1.632812 -14.914062 2.4375 -15.03125 C 3.25 -15.144531 4.039062 -15.117188 4.8125 -14.953125 C 5.5625 -14.765625 6.257812 -14.4375 6.90625 -13.96875 C 7.550781 -13.5 8.085938 -12.882812 8.515625 -12.125 C 8.671875 -11.84375 8.753906 -11.582031 8.765625 -11.34375 C 8.785156 -11.101562 8.742188 -10.878906 8.640625 -10.671875 C 8.566406 -10.460938 8.429688 -10.269531 8.234375 -10.09375 C 8.035156 -9.914062 7.800781 -9.753906 7.53125 -9.609375 L 2.8125 -6.9375 C 2.90625 -6.863281 3.007812 -6.796875 3.125 -6.734375 C 3.238281 -6.671875 3.367188 -6.625 3.515625 -6.59375 C 3.648438 -6.5625 3.789062 -6.550781 3.9375 -6.5625 C 4.082031 -6.570312 4.222656 -6.617188 4.359375 -6.703125 C 4.503906 -6.785156 4.628906 -6.882812 4.734375 -7 C 4.847656 -7.113281 4.960938 -7.234375 5.078125 -7.359375 C 5.179688 -7.492188 5.289062 -7.625 5.40625 -7.75 C 5.53125 -7.875 5.6875 -7.988281 5.875 -8.09375 C 6.101562 -8.21875 6.359375 -8.316406 6.640625 -8.390625 C 6.921875 -8.460938 7.203125 -8.488281 7.484375 -8.46875 C 7.753906 -8.4375 8.007812 -8.347656 8.25 -8.203125 C 8.5 -8.066406 8.707031 -7.859375 8.875 -7.578125 C 9.101562 -7.148438 9.175781 -6.726562 9.09375 -6.3125 C 9.007812 -5.90625 8.832031 -5.519531 8.5625 -5.15625 C 8.28125 -4.769531 7.9375 -4.414062 7.53125 -4.09375 C 7.125 -3.769531 6.710938 -3.492188 6.296875 -3.265625 Z M 5.5625 -4.953125 C 5.988281 -5.191406 6.320312 -5.414062 6.5625 -5.625 C 6.800781 -5.832031 6.972656 -6.03125 7.078125 -6.21875 C 7.191406 -6.375 7.253906 -6.519531 7.265625 -6.65625 C 7.285156 -6.757812 7.289062 -6.820312 7.28125 -6.84375 C 7.238281 -6.90625 7.171875 -6.941406 7.078125 -6.953125 C 6.984375 -6.960938 6.894531 -6.941406 6.8125 -6.890625 C 6.757812 -6.859375 6.726562 -6.84375 6.71875 -6.84375 C 6.632812 -6.75 6.554688 -6.671875 6.484375 -6.609375 C 6.421875 -6.546875 6.367188 -6.476562 6.328125 -6.40625 C 6.222656 -6.300781 6.125 -6.195312 6.03125 -6.09375 C 5.9375 -6 5.828125 -5.914062 5.703125 -5.84375 C 5.585938 -5.738281 5.4375 -5.632812 5.25 -5.53125 C 4.820312 -5.289062 4.359375 -5.144531 3.859375 -5.09375 C 3.367188 -5.039062 2.882812 -5.082031 2.40625 -5.21875 C 1.925781 -5.375 1.460938 -5.628906 1.015625 -5.984375 C 0.566406 -6.335938 0.179688 -6.796875 -0.140625 -7.359375 L 5.859375 -10.75 C 6.128906 -10.894531 6.285156 -11.019531 6.328125 -11.125 C 6.367188 -11.207031 6.351562 -11.304688 6.28125 -11.421875 C 6.0625 -11.828125 5.765625 -12.164062 5.390625 -12.4375 C 5.023438 -12.707031 4.613281 -12.894531 4.15625 -13 C 3.695312 -13.101562 3.207031 -13.113281 2.6875 -13.03125 C 2.164062 -12.945312 1.640625 -12.753906 1.109375 -12.453125 C 0.648438 -12.191406 0.25 -11.859375 -0.09375 -11.453125 C -0.445312 -11.046875 -0.710938 -10.59375 -0.890625 -10.09375 C -1.054688 -9.582031 -1.117188 -9.035156 -1.078125 -8.453125 C -1.035156 -7.878906 -0.847656 -7.300781 -0.515625 -6.71875 C -0.210938 -6.1875 0.171875 -5.742188 0.640625 -5.390625 C 1.117188 -5.035156 1.632812 -4.773438 2.1875 -4.609375 C 2.738281 -4.453125 3.304688 -4.394531 3.890625 -4.4375 C 4.472656 -4.476562 5.03125 -4.648438 5.5625 -4.953125 Z M 1.453125 -11.84375 C 1.847656 -12.0625 2.242188 -12.207031 2.640625 -12.28125 C 3.035156 -12.363281 3.410156 -12.382812 3.765625 -12.34375 C 4.128906 -12.28125 4.457031 -12.160156 4.75 -11.984375 C 5.039062 -11.804688 5.289062 -11.585938 5.5 -11.328125 L -0.328125 -8.046875 C -0.421875 -8.453125 -0.4375 -8.84375 -0.375 -9.21875 C -0.320312 -9.59375 -0.207031 -9.953125 -0.03125 -10.296875 C 0.144531 -10.617188 0.359375 -10.910156 0.609375 -11.171875 C 0.867188 -11.441406 1.148438 -11.664062 1.453125 -11.84375 Z M 1.453125 -11.84375 "/></g></g></g><g fill="#ffffff" fill-opacity="1"><g transform="translate(243.146814, 268.398201)"><g><path d="M 1.9375 -19.203125 L 9.859375 -9.125 C 10.410156 -8.414062 10.332031 -7.78125 9.625 -7.21875 C 9.257812 -6.9375 8.882812 -6.8125 8.5 -6.84375 C 8.113281 -6.875 7.722656 -6.988281 7.328125 -7.1875 C 7.222656 -6.550781 7.007812 -5.953125 6.6875 -5.390625 C 6.363281 -4.828125 5.90625 -4.3125 5.3125 -3.84375 C 4.632812 -3.3125 3.914062 -2.957031 3.15625 -2.78125 C 2.394531 -2.601562 1.640625 -2.582031 0.890625 -2.71875 C 0.128906 -2.851562 -0.59375 -3.132812 -1.28125 -3.5625 C -1.976562 -4 -2.59375 -4.554688 -3.125 -5.234375 C -3.65625 -5.921875 -4.046875 -6.648438 -4.296875 -7.421875 C -4.554688 -8.191406 -4.65625 -8.957031 -4.59375 -9.71875 C -4.550781 -10.476562 -4.351562 -11.207031 -4 -11.90625 C -3.65625 -12.601562 -3.144531 -13.21875 -2.46875 -13.75 C -1.945312 -14.15625 -1.351562 -14.4375 -0.6875 -14.59375 L -1.921875 -16.171875 C -2.117188 -16.429688 -2.257812 -16.722656 -2.34375 -17.046875 C -2.425781 -17.367188 -2.453125 -17.6875 -2.421875 -18 C -2.378906 -18.300781 -2.28125 -18.59375 -2.125 -18.875 C -1.96875 -19.15625 -1.753906 -19.398438 -1.484375 -19.609375 C -1.210938 -19.828125 -0.921875 -19.976562 -0.609375 -20.0625 C -0.304688 -20.144531 0 -20.171875 0.3125 -20.140625 C 0.625 -20.097656 0.921875 -19.992188 1.203125 -19.828125 C 1.492188 -19.671875 1.738281 -19.460938 1.9375 -19.203125 Z M 7.5 -8.796875 L 0.328125 -17.921875 C 0.242188 -18.023438 0.144531 -18.082031 0.03125 -18.09375 C -0.0703125 -18.101562 -0.160156 -18.082031 -0.234375 -18.03125 C -0.316406 -17.957031 -0.363281 -17.867188 -0.375 -17.765625 C -0.382812 -17.671875 -0.320312 -17.546875 -0.1875 -17.390625 L 3.265625 -12.96875 C 2.941406 -13.132812 2.601562 -13.242188 2.25 -13.296875 C 1.894531 -13.359375 1.535156 -13.359375 1.171875 -13.296875 C 0.429688 -13.179688 -0.25 -12.878906 -0.875 -12.390625 C -1.332031 -12.035156 -1.6875 -11.617188 -1.9375 -11.140625 C -2.195312 -10.660156 -2.347656 -10.160156 -2.390625 -9.640625 C -2.453125 -9.097656 -2.40625 -8.566406 -2.25 -8.046875 C -2.101562 -7.523438 -1.851562 -7.035156 -1.5 -6.578125 C -1.132812 -6.117188 -0.710938 -5.75 -0.234375 -5.46875 C 0.234375 -5.195312 0.738281 -5.03125 1.28125 -4.96875 C 1.800781 -4.875 2.320312 -4.894531 2.84375 -5.03125 C 3.375 -5.164062 3.867188 -5.410156 4.328125 -5.765625 C 4.628906 -6.003906 4.894531 -6.28125 5.125 -6.59375 C 5.351562 -6.90625 5.523438 -7.234375 5.640625 -7.578125 C 5.773438 -7.910156 5.859375 -8.257812 5.890625 -8.625 C 5.921875 -9 5.890625 -9.375 5.796875 -9.75 L 6.6875 -8.625 C 6.738281 -8.550781 6.804688 -8.488281 6.890625 -8.4375 C 6.984375 -8.394531 7.070312 -8.363281 7.15625 -8.34375 C 7.375 -8.269531 7.535156 -8.273438 7.640625 -8.359375 C 7.710938 -8.410156 7.726562 -8.46875 7.6875 -8.53125 C 7.644531 -8.601562 7.582031 -8.691406 7.5 -8.796875 Z M 4.4375 -11.234375 C 4.75 -10.835938 4.96875 -10.414062 5.09375 -9.96875 C 5.21875 -9.53125 5.25 -9.085938 5.1875 -8.640625 C 5.144531 -8.203125 5.015625 -7.773438 4.796875 -7.359375 C 4.578125 -6.953125 4.28125 -6.597656 3.90625 -6.296875 C 3.519531 -5.992188 3.109375 -5.789062 2.671875 -5.6875 C 2.234375 -5.59375 1.800781 -5.582031 1.375 -5.65625 C 0.945312 -5.71875 0.535156 -5.863281 0.140625 -6.09375 C -0.253906 -6.320312 -0.609375 -6.632812 -0.921875 -7.03125 C -1.222656 -7.414062 -1.4375 -7.828125 -1.5625 -8.265625 C -1.6875 -8.703125 -1.738281 -9.144531 -1.71875 -9.59375 C -1.6875 -10.019531 -1.566406 -10.429688 -1.359375 -10.828125 C -1.148438 -11.222656 -0.851562 -11.570312 -0.46875 -11.875 C -0.09375 -12.175781 0.316406 -12.382812 0.765625 -12.5 C 1.210938 -12.613281 1.65625 -12.640625 2.09375 -12.578125 C 2.5625 -12.515625 2.992188 -12.367188 3.390625 -12.140625 C 3.785156 -11.921875 4.132812 -11.617188 4.4375 -11.234375 Z M 2.9375 -9.984375 C 2.6875 -10.304688 2.367188 -10.503906 1.984375 -10.578125 C 1.796875 -10.609375 1.609375 -10.601562 1.421875 -10.5625 C 1.242188 -10.519531 1.078125 -10.4375 0.921875 -10.3125 C 0.753906 -10.1875 0.625 -10.039062 0.53125 -9.875 C 0.445312 -9.707031 0.40625 -9.523438 0.40625 -9.328125 C 0.375 -8.929688 0.484375 -8.570312 0.734375 -8.25 C 0.992188 -7.925781 1.316406 -7.734375 1.703125 -7.671875 C 1.878906 -7.648438 2.0625 -7.65625 2.25 -7.6875 C 2.4375 -7.726562 2.613281 -7.8125 2.78125 -7.9375 C 2.9375 -8.0625 3.054688 -8.207031 3.140625 -8.375 C 3.222656 -8.550781 3.269531 -8.734375 3.28125 -8.921875 C 3.3125 -9.304688 3.195312 -9.660156 2.9375 -9.984375 Z M 2.9375 -9.984375 "/></g></g></g><g fill="#ffffff" fill-opacity="1"><g transform="translate(255.144976, 258.661118)"><g><path d="M -5.078125 -12.015625 C -4.816406 -12.085938 -4.570312 -12.125 -4.34375 -12.125 C -4.03125 -12.125 -3.71875 -12.0625 -3.40625 -11.9375 C -3.101562 -11.8125 -2.835938 -11.628906 -2.609375 -11.390625 L 2.84375 -5.921875 C 3.082031 -5.679688 3.257812 -5.40625 3.375 -5.09375 C 3.5 -4.789062 3.554688 -4.488281 3.546875 -4.1875 C 3.546875 -3.875 3.484375 -3.566406 3.359375 -3.265625 C 3.234375 -2.960938 3.050781 -2.695312 2.8125 -2.46875 C 2.570312 -2.21875 2.300781 -2.03125 2 -1.90625 C 1.707031 -1.789062 1.40625 -1.734375 1.09375 -1.734375 C 0.789062 -1.722656 0.488281 -1.785156 0.1875 -1.921875 C -0.113281 -2.054688 -0.382812 -2.242188 -0.625 -2.484375 L -6.078125 -7.953125 C -6.304688 -8.191406 -6.484375 -8.457031 -6.609375 -8.75 C -6.734375 -9.050781 -6.796875 -9.359375 -6.796875 -9.671875 C -6.785156 -9.929688 -6.75 -10.175781 -6.6875 -10.40625 C -6.945312 -10.320312 -7.195312 -10.285156 -7.4375 -10.296875 C -7.738281 -10.285156 -8.039062 -10.335938 -8.34375 -10.453125 C -8.65625 -10.578125 -8.9375 -10.765625 -9.1875 -11.015625 C -9.414062 -11.253906 -9.585938 -11.523438 -9.703125 -11.828125 C -9.816406 -12.128906 -9.875 -12.4375 -9.875 -12.75 C -9.875 -13.050781 -9.8125 -13.351562 -9.6875 -13.65625 C -9.5625 -13.957031 -9.375 -14.234375 -9.125 -14.484375 C -8.875 -14.734375 -8.597656 -14.914062 -8.296875 -15.03125 C -7.992188 -15.15625 -7.6875 -15.222656 -7.375 -15.234375 C -7.0625 -15.234375 -6.753906 -15.171875 -6.453125 -15.046875 C -6.148438 -14.929688 -5.882812 -14.753906 -5.65625 -14.515625 C -5.40625 -14.265625 -5.21875 -13.988281 -5.09375 -13.6875 C -4.976562 -13.382812 -4.925781 -13.082031 -4.9375 -12.78125 C -4.9375 -12.519531 -4.984375 -12.265625 -5.078125 -12.015625 Z M -7.75 -13.109375 C -7.851562 -13.003906 -7.898438 -12.890625 -7.890625 -12.765625 C -7.878906 -12.640625 -7.828125 -12.523438 -7.734375 -12.421875 C -7.628906 -12.316406 -7.515625 -12.257812 -7.390625 -12.25 C -7.273438 -12.25 -7.164062 -12.300781 -7.0625 -12.40625 C -6.957031 -12.507812 -6.90625 -12.625 -6.90625 -12.75 C -6.90625 -12.875 -6.957031 -12.988281 -7.0625 -13.09375 C -7.15625 -13.195312 -7.265625 -13.25 -7.390625 -13.25 C -7.523438 -13.257812 -7.644531 -13.210938 -7.75 -13.109375 Z M -4.078125 -9.9375 C -4.148438 -10.007812 -4.238281 -10.046875 -4.34375 -10.046875 C -4.445312 -10.046875 -4.535156 -10.007812 -4.609375 -9.9375 C -4.691406 -9.851562 -4.726562 -9.757812 -4.71875 -9.65625 C -4.71875 -9.5625 -4.679688 -9.476562 -4.609375 -9.40625 L 0.828125 -3.953125 C 0.898438 -3.878906 0.984375 -3.835938 1.078125 -3.828125 C 1.179688 -3.828125 1.273438 -3.867188 1.359375 -3.953125 C 1.429688 -4.023438 1.46875 -4.113281 1.46875 -4.21875 C 1.46875 -4.320312 1.429688 -4.410156 1.359375 -4.484375 Z M -4.078125 -9.9375 "/></g></g></g><g clip-path="url(#7070ea4b08)"><g clip-path="url(#68d6a1b439)"><path fill="#145da0" d="M 271.6875 213.285156 L 282.078125 213.285156 L 282.078125 223.675781 L 271.6875 223.675781 Z M 271.6875 213.285156 " fill-opacity="1" fill-rule="nonzero"/></g></g></svg>